<mxfile host="app.diagrams.net" agent="Mozilla/5.0 (Windows NT 10.0; Win64; x64) AppleWebKit/537.36 (KHTML, like Gecko) Chrome/134.0.0.0 Safari/537.36" version="26.1.1">
  <diagram name="Page-1" id="XfhUcXcF2LE9acCcoFgk">
    <mxGraphModel dx="2326" dy="686" grid="1" gridSize="10" guides="1" tooltips="1" connect="1" arrows="1" fold="1" page="1" pageScale="1" pageWidth="827" pageHeight="1169" math="0" shadow="0">
      <root>
        <mxCell id="0" />
        <mxCell id="1" parent="0" />
        <mxCell id="c3kGjx1w-b3ts2C8C347-1" value="people" style="swimlane;fontStyle=0;childLayout=stackLayout;horizontal=1;startSize=20;fillColor=none;horizontalStack=0;resizeParent=1;resizeParentMax=0;resizeLast=0;collapsible=1;marginBottom=0;html=1;" parent="1" vertex="1">
          <mxGeometry x="310" y="130" width="180" height="414" as="geometry" />
        </mxCell>
        <mxCell id="c3kGjx1w-b3ts2C8C347-2" value="&lt;b&gt;lastname &lt;/b&gt;text" style="text;strokeColor=none;fillColor=none;align=left;verticalAlign=top;spacingLeft=4;spacingRight=4;overflow=hidden;rotatable=0;points=[[0,0.5],[1,0.5]];portConstraint=eastwest;whiteSpace=wrap;html=1;" parent="c3kGjx1w-b3ts2C8C347-1" vertex="1">
          <mxGeometry y="20" width="180" height="26" as="geometry" />
        </mxCell>
        <mxCell id="c3kGjx1w-b3ts2C8C347-3" value="&lt;b&gt;firstname&lt;/b&gt;&lt;b&gt;&amp;nbsp;&lt;/b&gt;text" style="text;strokeColor=none;fillColor=none;align=left;verticalAlign=top;spacingLeft=4;spacingRight=4;overflow=hidden;rotatable=0;points=[[0,0.5],[1,0.5]];portConstraint=eastwest;whiteSpace=wrap;html=1;" parent="c3kGjx1w-b3ts2C8C347-1" vertex="1">
          <mxGeometry y="46" width="180" height="26" as="geometry" />
        </mxCell>
        <mxCell id="c3kGjx1w-b3ts2C8C347-4" value="&lt;b&gt;phone_number&lt;/b&gt;&lt;b&gt;&amp;nbsp;&lt;/b&gt;number" style="text;strokeColor=none;fillColor=none;align=left;verticalAlign=top;spacingLeft=4;spacingRight=4;overflow=hidden;rotatable=0;points=[[0,0.5],[1,0.5]];portConstraint=eastwest;whiteSpace=wrap;html=1;" parent="c3kGjx1w-b3ts2C8C347-1" vertex="1">
          <mxGeometry y="72" width="180" height="26" as="geometry" />
        </mxCell>
        <mxCell id="c3kGjx1w-b3ts2C8C347-5" value="&lt;b&gt;type&lt;/b&gt;&lt;b&gt;&amp;nbsp;&lt;/b&gt;text" style="text;strokeColor=none;fillColor=none;align=left;verticalAlign=top;spacingLeft=4;spacingRight=4;overflow=hidden;rotatable=0;points=[[0,0.5],[1,0.5]];portConstraint=eastwest;whiteSpace=wrap;html=1;" parent="c3kGjx1w-b3ts2C8C347-1" vertex="1">
          <mxGeometry y="98" width="180" height="26" as="geometry" />
        </mxCell>
        <mxCell id="c3kGjx1w-b3ts2C8C347-6" value="&lt;b&gt;created_at &lt;/b&gt;date_time" style="text;strokeColor=none;fillColor=none;align=left;verticalAlign=top;spacingLeft=4;spacingRight=4;overflow=hidden;rotatable=0;points=[[0,0.5],[1,0.5]];portConstraint=eastwest;whiteSpace=wrap;html=1;" parent="c3kGjx1w-b3ts2C8C347-1" vertex="1">
          <mxGeometry y="124" width="180" height="26" as="geometry" />
        </mxCell>
        <mxCell id="c3kGjx1w-b3ts2C8C347-7" value="&lt;b&gt;updated_at &lt;/b&gt;date_time" style="text;strokeColor=none;fillColor=none;align=left;verticalAlign=top;spacingLeft=4;spacingRight=4;overflow=hidden;rotatable=0;points=[[0,0.5],[1,0.5]];portConstraint=eastwest;whiteSpace=wrap;html=1;" parent="c3kGjx1w-b3ts2C8C347-1" vertex="1">
          <mxGeometry y="150" width="180" height="26" as="geometry" />
        </mxCell>
        <mxCell id="c3kGjx1w-b3ts2C8C347-8" value="&lt;b&gt;iban&lt;/b&gt;&lt;b&gt;&amp;nbsp;&lt;/b&gt;text" style="text;strokeColor=none;fillColor=none;align=left;verticalAlign=top;spacingLeft=4;spacingRight=4;overflow=hidden;rotatable=0;points=[[0,0.5],[1,0.5]];portConstraint=eastwest;whiteSpace=wrap;html=1;" parent="c3kGjx1w-b3ts2C8C347-1" vertex="1">
          <mxGeometry y="176" width="180" height="26" as="geometry" />
        </mxCell>
        <mxCell id="c3kGjx1w-b3ts2C8C347-9" value="&lt;b&gt;status &lt;/b&gt;Enum()" style="text;strokeColor=none;fillColor=none;align=left;verticalAlign=top;spacingLeft=4;spacingRight=4;overflow=hidden;rotatable=0;points=[[0,0.5],[1,0.5]];portConstraint=eastwest;whiteSpace=wrap;html=1;" parent="c3kGjx1w-b3ts2C8C347-1" vertex="1">
          <mxGeometry y="202" width="180" height="26" as="geometry" />
        </mxCell>
        <mxCell id="c3kGjx1w-b3ts2C8C347-10" value="&lt;b&gt;email&amp;nbsp;&lt;/b&gt;&lt;b&gt;&amp;nbsp;&lt;/b&gt;text" style="text;strokeColor=none;fillColor=none;align=left;verticalAlign=top;spacingLeft=4;spacingRight=4;overflow=hidden;rotatable=0;points=[[0,0.5],[1,0.5]];portConstraint=eastwest;whiteSpace=wrap;html=1;fontStyle=0" parent="c3kGjx1w-b3ts2C8C347-1" vertex="1">
          <mxGeometry y="228" width="180" height="26" as="geometry" />
        </mxCell>
        <mxCell id="c3kGjx1w-b3ts2C8C347-11" value="&lt;b&gt;encrypted_password&amp;nbsp;&lt;/b&gt;text" style="text;strokeColor=none;fillColor=none;align=left;verticalAlign=top;spacingLeft=4;spacingRight=4;overflow=hidden;rotatable=0;points=[[0,0.5],[1,0.5]];portConstraint=eastwest;whiteSpace=wrap;html=1;" parent="c3kGjx1w-b3ts2C8C347-1" vertex="1">
          <mxGeometry y="254" width="180" height="26" as="geometry" />
        </mxCell>
        <mxCell id="c3kGjx1w-b3ts2C8C347-12" value="&lt;b&gt;reset_password_token&lt;/b&gt;&lt;b&gt;&amp;nbsp;&lt;/b&gt;text" style="text;strokeColor=none;fillColor=none;align=left;verticalAlign=top;spacingLeft=4;spacingRight=4;overflow=hidden;rotatable=0;points=[[0,0.5],[1,0.5]];portConstraint=eastwest;whiteSpace=wrap;html=1;" parent="c3kGjx1w-b3ts2C8C347-1" vertex="1">
          <mxGeometry y="280" width="180" height="26" as="geometry" />
        </mxCell>
        <mxCell id="c3kGjx1w-b3ts2C8C347-13" value="&lt;b&gt;reset_password_sent_at&lt;/b&gt;&lt;b&gt;&amp;nbsp;&lt;/b&gt;text" style="text;strokeColor=none;fillColor=none;align=left;verticalAlign=top;spacingLeft=4;spacingRight=4;overflow=hidden;rotatable=0;points=[[0,0.5],[1,0.5]];portConstraint=eastwest;whiteSpace=wrap;html=1;" parent="c3kGjx1w-b3ts2C8C347-1" vertex="1">
          <mxGeometry y="306" width="180" height="26" as="geometry" />
        </mxCell>
        <mxCell id="c3kGjx1w-b3ts2C8C347-14" value="&lt;b&gt;isDeleted &lt;/b&gt;bool" style="text;strokeColor=none;fillColor=none;align=left;verticalAlign=top;spacingLeft=4;spacingRight=4;overflow=hidden;rotatable=0;points=[[0,0.5],[1,0.5]];portConstraint=eastwest;whiteSpace=wrap;html=1;" parent="c3kGjx1w-b3ts2C8C347-1" vertex="1">
          <mxGeometry y="332" width="180" height="26" as="geometry" />
        </mxCell>
        <mxCell id="JtVLC9THB3B2dhIAnBEE-51" value="" style="text;strokeColor=default;fillColor=none;align=left;verticalAlign=top;spacingLeft=4;spacingRight=4;overflow=hidden;rotatable=0;points=[[0,0.5],[1,0.5]];portConstraint=eastwest;whiteSpace=wrap;html=1;" parent="c3kGjx1w-b3ts2C8C347-1" vertex="1">
          <mxGeometry y="358" width="180" height="4" as="geometry" />
        </mxCell>
        <mxCell id="JtVLC9THB3B2dhIAnBEE-52" value="u(email)" style="text;strokeColor=none;fillColor=none;align=left;verticalAlign=top;spacingLeft=4;spacingRight=4;overflow=hidden;rotatable=0;points=[[0,0.5],[1,0.5]];portConstraint=eastwest;whiteSpace=wrap;html=1;" parent="c3kGjx1w-b3ts2C8C347-1" vertex="1">
          <mxGeometry y="362" width="180" height="26" as="geometry" />
        </mxCell>
        <mxCell id="JtVLC9THB3B2dhIAnBEE-50" value="u(reset_password_token)" style="text;strokeColor=none;fillColor=none;align=left;verticalAlign=top;spacingLeft=4;spacingRight=4;overflow=hidden;rotatable=0;points=[[0,0.5],[1,0.5]];portConstraint=eastwest;whiteSpace=wrap;html=1;" parent="c3kGjx1w-b3ts2C8C347-1" vertex="1">
          <mxGeometry y="388" width="180" height="26" as="geometry" />
        </mxCell>
        <mxCell id="JtVLC9THB3B2dhIAnBEE-3" style="edgeStyle=orthogonalEdgeStyle;rounded=0;orthogonalLoop=1;jettySize=auto;html=1;entryX=0;entryY=0.5;entryDx=0;entryDy=0;" parent="1" source="c3kGjx1w-b3ts2C8C347-15" target="JtVLC9THB3B2dhIAnBEE-79" edge="1">
          <mxGeometry relative="1" as="geometry">
            <mxPoint x="310" y="993.9999999999998" as="targetPoint" />
          </mxGeometry>
        </mxCell>
        <mxCell id="c3kGjx1w-b3ts2C8C347-15" value="examinations" style="swimlane;fontStyle=0;childLayout=stackLayout;horizontal=1;startSize=20;fillColor=none;horizontalStack=0;resizeParent=1;resizeParentMax=0;resizeLast=0;collapsible=1;marginBottom=0;html=1;" parent="1" vertex="1">
          <mxGeometry x="70" y="690" width="140" height="206" as="geometry" />
        </mxCell>
        <mxCell id="c3kGjx1w-b3ts2C8C347-16" value="&lt;b&gt;title &lt;/b&gt;text&lt;span style=&quot;color: rgba(0, 0, 0, 0); font-family: monospace; font-size: 0px; text-wrap-mode: nowrap;&quot;&gt;%3CmxGraphModel%3E%3Croot%3E%3CmxCell%20id%3D%220%22%2F%3E%3CmxCell%20id%3D%221%22%20parent%3D%220%22%2F%3E%3CmxCell%20id%3D%222%22%20value%3D%22%26lt%3Bb%26gt%3Bcreated_at%20%26lt%3B%2Fb%26gt%3Bdate_time%22%20style%3D%22text%3BstrokeColor%3Dnone%3BfillColor%3Dnone%3Balign%3Dleft%3BverticalAlign%3Dtop%3BspacingLeft%3D4%3BspacingRight%3D4%3Boverflow%3Dhidden%3Brotatable%3D0%3Bpoints%3D%5B%5B0%2C0.5%5D%2C%5B1%2C0.5%5D%5D%3BportConstraint%3Deastwest%3BwhiteSpace%3Dwrap%3Bhtml%3D1%3B%22%20vertex%3D%221%22%20parent%3D%221%22%3E%3CmxGeometry%20x%3D%22310%22%20y%3D%22254%22%20width%3D%22180%22%20height%3D%2226%22%20as%3D%22geometry%22%2F%3E%3C%2FmxCell%3E%3CmxCell%20id%3D%223%22%20value%3D%22%26lt%3Bb%26gt%3Bupdated_at%20%26lt%3B%2Fb%26gt%3Bdate_time%22%20style%3D%22text%3BstrokeColor%3Dnone%3BfillColor%3Dnone%3Balign%3Dleft%3BverticalAlign%3Dtop%3BspacingLeft%3D4%3BspacingRight%3D4%3Boverflow%3Dhidden%3Brotatable%3D0%3Bpoints%3D%5B%5B0%2C0.5%5D%2C%5B1%2C0.5%5D%5D%3BportConstraint%3Deastwest%3BwhiteSpace%3Dwrap%3Bhtml%3D1%3B%22%20vertex%3D%221%22%20parent%3D%221%22%3E%3CmxGeometry%20x%3D%22310%22%20y%3D%22280%22%20width%3D%22180%22%20height%3D%2226%22%20as%3D%22geometry%22%2F%3E%3C%2FmxCell%3E%3CmxCell%20id%3D%224%22%20value%3D%22%26lt%3Bb%26gt%3BisDeleted%20%26lt%3B%2Fb%26gt%3Bbool%22%20style%3D%22text%3BstrokeColor%3Dnone%3BfillColor%3Dnone%3Balign%3Dleft%3BverticalAlign%3Dtop%3BspacingLeft%3D4%3BspacingRight%3D4%3Boverflow%3Dhidden%3Brotatable%3D0%3Bpoints%3D%5B%5B0%2C0.5%5D%2C%5B1%2C0.5%5D%5D%3BportConstraint%3Deastwest%3BwhiteSpace%3Dwrap%3Bhtml%3D1%3B%22%20vertex%3D%221%22%20parent%3D%221%22%3E%3CmxGeometry%20x%3D%22310%22%20y%3D%22462%22%20width%3D%22180%22%20height%3D%2226%22%20as%3D%22geometry%22%2F%3E%3C%2FmxCell%3E%3C%2Froot%3E%3C%2FmxGraphModel%3Egttfsdf&lt;/span&gt;" style="text;strokeColor=none;fillColor=none;align=left;verticalAlign=top;spacingLeft=4;spacingRight=4;overflow=hidden;rotatable=0;points=[[0,0.5],[1,0.5]];portConstraint=eastwest;whiteSpace=wrap;html=1;fontStyle=0" parent="c3kGjx1w-b3ts2C8C347-15" vertex="1">
          <mxGeometry y="20" width="140" height="26" as="geometry" />
        </mxCell>
        <mxCell id="c3kGjx1w-b3ts2C8C347-17" value="&lt;b&gt;date&lt;/b&gt; text" style="text;strokeColor=none;fillColor=none;align=left;verticalAlign=top;spacingLeft=4;spacingRight=4;overflow=hidden;rotatable=0;points=[[0,0.5],[1,0.5]];portConstraint=eastwest;whiteSpace=wrap;html=1;fontStyle=0" parent="c3kGjx1w-b3ts2C8C347-15" vertex="1">
          <mxGeometry y="46" width="140" height="26" as="geometry" />
        </mxCell>
        <mxCell id="JtVLC9THB3B2dhIAnBEE-47" value="&lt;b&gt;lecture_id &lt;/b&gt;number" style="text;strokeColor=none;fillColor=none;align=left;verticalAlign=top;spacingLeft=4;spacingRight=4;overflow=hidden;rotatable=0;points=[[0,0.5],[1,0.5]];portConstraint=eastwest;whiteSpace=wrap;html=1;" parent="c3kGjx1w-b3ts2C8C347-15" vertex="1">
          <mxGeometry y="72" width="140" height="26" as="geometry" />
        </mxCell>
        <mxCell id="JtVLC9THB3B2dhIAnBEE-73" value="&lt;b&gt;created_at &lt;/b&gt;date_time" style="text;strokeColor=none;fillColor=none;align=left;verticalAlign=top;spacingLeft=4;spacingRight=4;overflow=hidden;rotatable=0;points=[[0,0.5],[1,0.5]];portConstraint=eastwest;whiteSpace=wrap;html=1;" parent="c3kGjx1w-b3ts2C8C347-15" vertex="1">
          <mxGeometry y="98" width="140" height="26" as="geometry" />
        </mxCell>
        <mxCell id="JtVLC9THB3B2dhIAnBEE-74" value="&lt;b&gt;updated_at &lt;/b&gt;date_time" style="text;strokeColor=none;fillColor=none;align=left;verticalAlign=top;spacingLeft=4;spacingRight=4;overflow=hidden;rotatable=0;points=[[0,0.5],[1,0.5]];portConstraint=eastwest;whiteSpace=wrap;html=1;" parent="c3kGjx1w-b3ts2C8C347-15" vertex="1">
          <mxGeometry y="124" width="140" height="26" as="geometry" />
        </mxCell>
        <mxCell id="JtVLC9THB3B2dhIAnBEE-75" value="&lt;b&gt;isDeleted &lt;/b&gt;bool" style="text;strokeColor=none;fillColor=none;align=left;verticalAlign=top;spacingLeft=4;spacingRight=4;overflow=hidden;rotatable=0;points=[[0,0.5],[1,0.5]];portConstraint=eastwest;whiteSpace=wrap;html=1;" parent="c3kGjx1w-b3ts2C8C347-15" vertex="1">
          <mxGeometry y="150" width="140" height="26" as="geometry" />
        </mxCell>
        <mxCell id="JtVLC9THB3B2dhIAnBEE-49" value="" style="text;strokeColor=default;fillColor=none;align=left;verticalAlign=top;spacingLeft=4;spacingRight=4;overflow=hidden;rotatable=0;points=[[0,0.5],[1,0.5]];portConstraint=eastwest;whiteSpace=wrap;html=1;" parent="c3kGjx1w-b3ts2C8C347-15" vertex="1">
          <mxGeometry y="176" width="140" height="4" as="geometry" />
        </mxCell>
        <mxCell id="JtVLC9THB3B2dhIAnBEE-48" value="fk(lecture_id)" style="text;strokeColor=none;fillColor=none;align=left;verticalAlign=top;spacingLeft=4;spacingRight=4;overflow=hidden;rotatable=0;points=[[0,0.5],[1,0.5]];portConstraint=eastwest;whiteSpace=wrap;html=1;" parent="c3kGjx1w-b3ts2C8C347-15" vertex="1">
          <mxGeometry y="180" width="140" height="26" as="geometry" />
        </mxCell>
        <mxCell id="JtVLC9THB3B2dhIAnBEE-1" style="edgeStyle=orthogonalEdgeStyle;rounded=0;orthogonalLoop=1;jettySize=auto;html=1;exitX=0.5;exitY=0;exitDx=0;exitDy=0;" parent="1" source="JtVLC9THB3B2dhIAnBEE-53" target="c3kGjx1w-b3ts2C8C347-5" edge="1">
          <mxGeometry relative="1" as="geometry">
            <mxPoint x="140" y="430" as="sourcePoint" />
          </mxGeometry>
        </mxCell>
        <mxCell id="JtVLC9THB3B2dhIAnBEE-2" style="edgeStyle=orthogonalEdgeStyle;rounded=0;orthogonalLoop=1;jettySize=auto;html=1;entryX=0.5;entryY=0;entryDx=0;entryDy=0;exitX=0.465;exitY=0.994;exitDx=0;exitDy=0;exitPerimeter=0;" parent="1" source="JtVLC9THB3B2dhIAnBEE-69" target="c3kGjx1w-b3ts2C8C347-15" edge="1">
          <mxGeometry relative="1" as="geometry">
            <mxPoint x="140" y="554" as="sourcePoint" />
          </mxGeometry>
        </mxCell>
        <mxCell id="JtVLC9THB3B2dhIAnBEE-7" style="edgeStyle=orthogonalEdgeStyle;rounded=0;orthogonalLoop=1;jettySize=auto;html=1;entryX=0;entryY=0.5;entryDx=0;entryDy=0;exitX=1;exitY=0.5;exitDx=0;exitDy=0;" parent="1" source="JtVLC9THB3B2dhIAnBEE-79" target="JtVLC9THB3B2dhIAnBEE-160" edge="1">
          <mxGeometry relative="1" as="geometry">
            <mxPoint x="450" y="983.9999999999998" as="sourcePoint" />
            <mxPoint x="930" y="984" as="targetPoint" />
          </mxGeometry>
        </mxCell>
        <mxCell id="JtVLC9THB3B2dhIAnBEE-5" style="edgeStyle=orthogonalEdgeStyle;rounded=0;orthogonalLoop=1;jettySize=auto;html=1;entryX=1;entryY=0.5;entryDx=0;entryDy=0;exitX=0.5;exitY=0;exitDx=0;exitDy=0;" parent="1" source="JtVLC9THB3B2dhIAnBEE-110" target="c3kGjx1w-b3ts2C8C347-6" edge="1">
          <mxGeometry relative="1" as="geometry" />
        </mxCell>
        <mxCell id="JtVLC9THB3B2dhIAnBEE-6" style="edgeStyle=orthogonalEdgeStyle;rounded=0;orthogonalLoop=1;jettySize=auto;html=1;entryX=0.5;entryY=0;entryDx=0;entryDy=0;exitX=0.502;exitY=1.001;exitDx=0;exitDy=0;exitPerimeter=0;" parent="1" source="JtVLC9THB3B2dhIAnBEE-121" target="JtVLC9THB3B2dhIAnBEE-123" edge="1">
          <mxGeometry relative="1" as="geometry">
            <mxPoint x="860" y="678" as="targetPoint" />
          </mxGeometry>
        </mxCell>
        <mxCell id="JtVLC9THB3B2dhIAnBEE-8" style="edgeStyle=orthogonalEdgeStyle;rounded=0;orthogonalLoop=1;jettySize=auto;html=1;entryX=1;entryY=0.5;entryDx=0;entryDy=0;exitX=0;exitY=0.5;exitDx=0;exitDy=0;" parent="1" source="JtVLC9THB3B2dhIAnBEE-128" target="JtVLC9THB3B2dhIAnBEE-98" edge="1">
          <mxGeometry relative="1" as="geometry">
            <mxPoint x="790" y="779.0526315789475" as="sourcePoint" />
            <mxPoint x="450" y="711" as="targetPoint" />
          </mxGeometry>
        </mxCell>
        <mxCell id="c3kGjx1w-b3ts2C8C347-181" value="&lt;h1 style=&quot;margin-top: 0px;&quot;&gt;School management&lt;/h1&gt;&lt;p&gt;Cyprien Jaquier&lt;/p&gt;&lt;p&gt;Version: 1.1.1&lt;/p&gt;&lt;p&gt;Date: 2&lt;span style=&quot;background-color: transparent; color: light-dark(rgb(0, 0, 0), rgb(255, 255, 255));&quot;&gt;1 march 2025&lt;/span&gt;&lt;/p&gt;" style="text;html=1;whiteSpace=wrap;overflow=hidden;rounded=0;" parent="1" vertex="1">
          <mxGeometry x="-190" y="130" width="260" height="120" as="geometry" />
        </mxCell>
        <mxCell id="JtVLC9THB3B2dhIAnBEE-86" style="edgeStyle=orthogonalEdgeStyle;rounded=0;orthogonalLoop=1;jettySize=auto;html=1;entryX=0.5;entryY=0;entryDx=0;entryDy=0;" parent="1" source="JtVLC9THB3B2dhIAnBEE-21" target="JtVLC9THB3B2dhIAnBEE-76" edge="1">
          <mxGeometry relative="1" as="geometry" />
        </mxCell>
        <mxCell id="JtVLC9THB3B2dhIAnBEE-21" value="&lt;span style=&quot;text-wrap-mode: wrap;&quot;&gt;lectures_trimesters&lt;/span&gt;" style="swimlane;fontStyle=0;childLayout=stackLayout;horizontal=1;startSize=20;fillColor=none;horizontalStack=0;resizeParent=1;resizeParentMax=0;resizeLast=0;collapsible=1;marginBottom=0;html=1;rounded=1;" parent="1" vertex="1">
          <mxGeometry x="300" y="825" width="140" height="126" as="geometry" />
        </mxCell>
        <mxCell id="JtVLC9THB3B2dhIAnBEE-22" value="&lt;b&gt;lecture_id&amp;nbsp;&lt;/b&gt;number" style="text;strokeColor=none;fillColor=none;align=left;verticalAlign=top;spacingLeft=4;spacingRight=4;overflow=hidden;rotatable=0;points=[[0,0.5],[1,0.5]];portConstraint=eastwest;whiteSpace=wrap;html=1;fontStyle=0" parent="JtVLC9THB3B2dhIAnBEE-21" vertex="1">
          <mxGeometry y="20" width="140" height="26" as="geometry" />
        </mxCell>
        <mxCell id="JtVLC9THB3B2dhIAnBEE-27" value="&lt;b&gt;trimester_id&amp;nbsp;&lt;/b&gt;number" style="text;strokeColor=none;fillColor=none;align=left;verticalAlign=top;spacingLeft=4;spacingRight=4;overflow=hidden;rotatable=0;points=[[0,0.5],[1,0.5]];portConstraint=eastwest;whiteSpace=wrap;html=1;fontStyle=0" parent="JtVLC9THB3B2dhIAnBEE-21" vertex="1">
          <mxGeometry y="46" width="140" height="26" as="geometry" />
        </mxCell>
        <mxCell id="JtVLC9THB3B2dhIAnBEE-23" value="" style="text;strokeColor=default;fillColor=none;align=left;verticalAlign=top;spacingLeft=4;spacingRight=4;overflow=hidden;rotatable=0;points=[[0,0.5],[1,0.5]];portConstraint=eastwest;whiteSpace=wrap;html=1;fontStyle=0" parent="JtVLC9THB3B2dhIAnBEE-21" vertex="1">
          <mxGeometry y="72" width="140" height="2" as="geometry" />
        </mxCell>
        <mxCell id="JtVLC9THB3B2dhIAnBEE-29" value="" style="text;strokeColor=default;fillColor=none;align=left;verticalAlign=top;spacingLeft=4;spacingRight=4;overflow=hidden;rotatable=0;points=[[0,0.5],[1,0.5]];portConstraint=eastwest;whiteSpace=wrap;html=1;fontStyle=0" parent="JtVLC9THB3B2dhIAnBEE-21" vertex="1">
          <mxGeometry y="74" width="140" as="geometry" />
        </mxCell>
        <mxCell id="JtVLC9THB3B2dhIAnBEE-31" value="fk(lecture_id)" style="text;strokeColor=none;fillColor=none;align=left;verticalAlign=top;spacingLeft=4;spacingRight=4;overflow=hidden;rotatable=0;points=[[0,0.5],[1,0.5]];portConstraint=eastwest;whiteSpace=wrap;html=1;fontStyle=0" parent="JtVLC9THB3B2dhIAnBEE-21" vertex="1">
          <mxGeometry y="74" width="140" height="26" as="geometry" />
        </mxCell>
        <mxCell id="JtVLC9THB3B2dhIAnBEE-30" value="fk(trimester_id)" style="text;strokeColor=none;fillColor=none;align=left;verticalAlign=top;spacingLeft=4;spacingRight=4;overflow=hidden;rotatable=0;points=[[0,0.5],[1,0.5]];portConstraint=eastwest;whiteSpace=wrap;html=1;fontStyle=0" parent="JtVLC9THB3B2dhIAnBEE-21" vertex="1">
          <mxGeometry y="100" width="140" height="26" as="geometry" />
        </mxCell>
        <mxCell id="JtVLC9THB3B2dhIAnBEE-142" style="edgeStyle=orthogonalEdgeStyle;rounded=0;orthogonalLoop=1;jettySize=auto;html=1;entryX=1;entryY=0.5;entryDx=0;entryDy=0;" parent="1" source="JtVLC9THB3B2dhIAnBEE-33" target="c3kGjx1w-b3ts2C8C347-4" edge="1">
          <mxGeometry relative="1" as="geometry" />
        </mxCell>
        <mxCell id="JtVLC9THB3B2dhIAnBEE-165" style="edgeStyle=orthogonalEdgeStyle;rounded=0;orthogonalLoop=1;jettySize=auto;html=1;entryX=0.5;entryY=0;entryDx=0;entryDy=0;" parent="1" source="JtVLC9THB3B2dhIAnBEE-33" target="JtVLC9THB3B2dhIAnBEE-154" edge="1">
          <mxGeometry relative="1" as="geometry" />
        </mxCell>
        <mxCell id="JtVLC9THB3B2dhIAnBEE-33" value="&lt;span style=&quot;text-wrap-mode: wrap;&quot;&gt;subjects_teachers&lt;/span&gt;" style="swimlane;fontStyle=0;childLayout=stackLayout;horizontal=1;startSize=20;fillColor=none;horizontalStack=0;resizeParent=1;resizeParentMax=0;resizeLast=0;collapsible=1;marginBottom=0;html=1;rounded=1;" parent="1" vertex="1">
          <mxGeometry x="975" y="140" width="170" height="152" as="geometry" />
        </mxCell>
        <mxCell id="JtVLC9THB3B2dhIAnBEE-34" value="&lt;b&gt;teacher_id&amp;nbsp;&lt;/b&gt;number" style="text;strokeColor=none;fillColor=none;align=left;verticalAlign=top;spacingLeft=4;spacingRight=4;overflow=hidden;rotatable=0;points=[[0,0.5],[1,0.5]];portConstraint=eastwest;whiteSpace=wrap;html=1;fontStyle=0" parent="JtVLC9THB3B2dhIAnBEE-33" vertex="1">
          <mxGeometry y="20" width="170" height="26" as="geometry" />
        </mxCell>
        <mxCell id="JtVLC9THB3B2dhIAnBEE-35" value="&lt;b&gt;subject_id&amp;nbsp;&lt;/b&gt;number" style="text;strokeColor=none;fillColor=none;align=left;verticalAlign=top;spacingLeft=4;spacingRight=4;overflow=hidden;rotatable=0;points=[[0,0.5],[1,0.5]];portConstraint=eastwest;whiteSpace=wrap;html=1;fontStyle=0" parent="JtVLC9THB3B2dhIAnBEE-33" vertex="1">
          <mxGeometry y="46" width="170" height="26" as="geometry" />
        </mxCell>
        <mxCell id="JtVLC9THB3B2dhIAnBEE-36" value="" style="text;strokeColor=default;fillColor=none;align=left;verticalAlign=top;spacingLeft=4;spacingRight=4;overflow=hidden;rotatable=0;points=[[0,0.5],[1,0.5]];portConstraint=eastwest;whiteSpace=wrap;html=1;fontStyle=0" parent="JtVLC9THB3B2dhIAnBEE-33" vertex="1">
          <mxGeometry y="72" width="170" height="2" as="geometry" />
        </mxCell>
        <mxCell id="JtVLC9THB3B2dhIAnBEE-37" value="" style="text;strokeColor=default;fillColor=none;align=left;verticalAlign=top;spacingLeft=4;spacingRight=4;overflow=hidden;rotatable=0;points=[[0,0.5],[1,0.5]];portConstraint=eastwest;whiteSpace=wrap;html=1;fontStyle=0" parent="JtVLC9THB3B2dhIAnBEE-33" vertex="1">
          <mxGeometry y="74" width="170" as="geometry" />
        </mxCell>
        <mxCell id="JtVLC9THB3B2dhIAnBEE-38" value="fk(teacher_id)" style="text;strokeColor=none;fillColor=none;align=left;verticalAlign=top;spacingLeft=4;spacingRight=4;overflow=hidden;rotatable=0;points=[[0,0.5],[1,0.5]];portConstraint=eastwest;whiteSpace=wrap;html=1;fontStyle=0" parent="JtVLC9THB3B2dhIAnBEE-33" vertex="1">
          <mxGeometry y="74" width="170" height="26" as="geometry" />
        </mxCell>
        <mxCell id="JtVLC9THB3B2dhIAnBEE-39" value="fk(subject_id)" style="text;strokeColor=none;fillColor=none;align=left;verticalAlign=top;spacingLeft=4;spacingRight=4;overflow=hidden;rotatable=0;points=[[0,0.5],[1,0.5]];portConstraint=eastwest;whiteSpace=wrap;html=1;fontStyle=0" parent="JtVLC9THB3B2dhIAnBEE-33" vertex="1">
          <mxGeometry y="100" width="170" height="26" as="geometry" />
        </mxCell>
        <mxCell id="JtVLC9THB3B2dhIAnBEE-181" value="u(teacher_id, subject_id)" style="text;strokeColor=none;fillColor=none;align=left;verticalAlign=top;spacingLeft=4;spacingRight=4;overflow=hidden;rotatable=0;points=[[0,0.5],[1,0.5]];portConstraint=eastwest;whiteSpace=wrap;html=1;" parent="JtVLC9THB3B2dhIAnBEE-33" vertex="1">
          <mxGeometry y="126" width="170" height="26" as="geometry" />
        </mxCell>
        <mxCell id="JtVLC9THB3B2dhIAnBEE-100" style="edgeStyle=orthogonalEdgeStyle;rounded=0;orthogonalLoop=1;jettySize=auto;html=1;entryX=1;entryY=0.5;entryDx=0;entryDy=0;" parent="1" source="JtVLC9THB3B2dhIAnBEE-40" target="c3kGjx1w-b3ts2C8C347-12" edge="1">
          <mxGeometry relative="1" as="geometry" />
        </mxCell>
        <mxCell id="JtVLC9THB3B2dhIAnBEE-122" style="edgeStyle=orthogonalEdgeStyle;rounded=0;orthogonalLoop=1;jettySize=auto;html=1;entryX=0;entryY=0.5;entryDx=0;entryDy=0;" parent="1" source="JtVLC9THB3B2dhIAnBEE-40" target="JtVLC9THB3B2dhIAnBEE-113" edge="1">
          <mxGeometry relative="1" as="geometry" />
        </mxCell>
        <mxCell id="JtVLC9THB3B2dhIAnBEE-40" value="school_classes_students" style="swimlane;fontStyle=0;childLayout=stackLayout;horizontal=1;startSize=20;fillColor=none;horizontalStack=0;resizeParent=1;resizeParentMax=0;resizeLast=0;collapsible=1;marginBottom=0;html=1;rounded=1;" parent="1" vertex="1">
          <mxGeometry x="550" y="360" width="163" height="126" as="geometry" />
        </mxCell>
        <mxCell id="JtVLC9THB3B2dhIAnBEE-41" value="&lt;b&gt;school_class_id&amp;nbsp;&lt;/b&gt;number" style="text;strokeColor=none;fillColor=none;align=left;verticalAlign=top;spacingLeft=4;spacingRight=4;overflow=hidden;rotatable=0;points=[[0,0.5],[1,0.5]];portConstraint=eastwest;whiteSpace=wrap;html=1;fontStyle=0" parent="JtVLC9THB3B2dhIAnBEE-40" vertex="1">
          <mxGeometry y="20" width="163" height="26" as="geometry" />
        </mxCell>
        <mxCell id="JtVLC9THB3B2dhIAnBEE-42" value="&lt;b&gt;student_id&amp;nbsp;&lt;/b&gt;number" style="text;strokeColor=none;fillColor=none;align=left;verticalAlign=top;spacingLeft=4;spacingRight=4;overflow=hidden;rotatable=0;points=[[0,0.5],[1,0.5]];portConstraint=eastwest;whiteSpace=wrap;html=1;fontStyle=0" parent="JtVLC9THB3B2dhIAnBEE-40" vertex="1">
          <mxGeometry y="46" width="163" height="26" as="geometry" />
        </mxCell>
        <mxCell id="JtVLC9THB3B2dhIAnBEE-43" value="" style="text;strokeColor=default;fillColor=none;align=left;verticalAlign=top;spacingLeft=4;spacingRight=4;overflow=hidden;rotatable=0;points=[[0,0.5],[1,0.5]];portConstraint=eastwest;whiteSpace=wrap;html=1;fontStyle=0" parent="JtVLC9THB3B2dhIAnBEE-40" vertex="1">
          <mxGeometry y="72" width="163" height="2" as="geometry" />
        </mxCell>
        <mxCell id="JtVLC9THB3B2dhIAnBEE-44" value="" style="text;strokeColor=default;fillColor=none;align=left;verticalAlign=top;spacingLeft=4;spacingRight=4;overflow=hidden;rotatable=0;points=[[0,0.5],[1,0.5]];portConstraint=eastwest;whiteSpace=wrap;html=1;fontStyle=0" parent="JtVLC9THB3B2dhIAnBEE-40" vertex="1">
          <mxGeometry y="74" width="163" as="geometry" />
        </mxCell>
        <mxCell id="JtVLC9THB3B2dhIAnBEE-45" value="fk(school_class_id)" style="text;strokeColor=none;fillColor=none;align=left;verticalAlign=top;spacingLeft=4;spacingRight=4;overflow=hidden;rotatable=0;points=[[0,0.5],[1,0.5]];portConstraint=eastwest;whiteSpace=wrap;html=1;fontStyle=0" parent="JtVLC9THB3B2dhIAnBEE-40" vertex="1">
          <mxGeometry y="74" width="163" height="26" as="geometry" />
        </mxCell>
        <mxCell id="JtVLC9THB3B2dhIAnBEE-46" value="fk(student_id)" style="text;strokeColor=none;fillColor=none;align=left;verticalAlign=top;spacingLeft=4;spacingRight=4;overflow=hidden;rotatable=0;points=[[0,0.5],[1,0.5]];portConstraint=eastwest;whiteSpace=wrap;html=1;fontStyle=0" parent="JtVLC9THB3B2dhIAnBEE-40" vertex="1">
          <mxGeometry y="100" width="163" height="26" as="geometry" />
        </mxCell>
        <mxCell id="JtVLC9THB3B2dhIAnBEE-53" value="grades" style="swimlane;fontStyle=0;childLayout=stackLayout;horizontal=1;startSize=20;fillColor=none;horizontalStack=0;resizeParent=1;resizeParentMax=0;resizeLast=0;collapsible=1;marginBottom=0;html=1;" parent="1" vertex="1">
          <mxGeometry x="70" y="316" width="150" height="232" as="geometry" />
        </mxCell>
        <mxCell id="JtVLC9THB3B2dhIAnBEE-54" value="&lt;b&gt;value &lt;/b&gt;number" style="text;strokeColor=none;fillColor=none;align=left;verticalAlign=top;spacingLeft=4;spacingRight=4;overflow=hidden;rotatable=0;points=[[0,0.5],[1,0.5]];portConstraint=eastwest;whiteSpace=wrap;html=1;" parent="JtVLC9THB3B2dhIAnBEE-53" vertex="1">
          <mxGeometry y="20" width="150" height="26" as="geometry" />
        </mxCell>
        <mxCell id="JtVLC9THB3B2dhIAnBEE-55" value="&lt;b&gt;examination_id &lt;/b&gt;number" style="text;strokeColor=none;fillColor=none;align=left;verticalAlign=top;spacingLeft=4;spacingRight=4;overflow=hidden;rotatable=0;points=[[0,0.5],[1,0.5]];portConstraint=eastwest;whiteSpace=wrap;html=1;" parent="JtVLC9THB3B2dhIAnBEE-53" vertex="1">
          <mxGeometry y="46" width="150" height="26" as="geometry" />
        </mxCell>
        <mxCell id="JtVLC9THB3B2dhIAnBEE-56" value="&lt;b&gt;student_id &lt;/b&gt;number&lt;span style=&quot;white-space: pre;&quot;&gt;&#x9;&lt;/span&gt;" style="text;strokeColor=none;fillColor=none;align=left;verticalAlign=top;spacingLeft=4;spacingRight=4;overflow=hidden;rotatable=0;points=[[0,0.5],[1,0.5]];portConstraint=eastwest;whiteSpace=wrap;html=1;" parent="JtVLC9THB3B2dhIAnBEE-53" vertex="1">
          <mxGeometry y="72" width="150" height="26" as="geometry" />
        </mxCell>
        <mxCell id="JtVLC9THB3B2dhIAnBEE-70" value="&lt;b&gt;created_at &lt;/b&gt;date_time" style="text;strokeColor=none;fillColor=none;align=left;verticalAlign=top;spacingLeft=4;spacingRight=4;overflow=hidden;rotatable=0;points=[[0,0.5],[1,0.5]];portConstraint=eastwest;whiteSpace=wrap;html=1;" parent="JtVLC9THB3B2dhIAnBEE-53" vertex="1">
          <mxGeometry y="98" width="150" height="26" as="geometry" />
        </mxCell>
        <mxCell id="JtVLC9THB3B2dhIAnBEE-71" value="&lt;b&gt;updated_at &lt;/b&gt;date_time" style="text;strokeColor=none;fillColor=none;align=left;verticalAlign=top;spacingLeft=4;spacingRight=4;overflow=hidden;rotatable=0;points=[[0,0.5],[1,0.5]];portConstraint=eastwest;whiteSpace=wrap;html=1;" parent="JtVLC9THB3B2dhIAnBEE-53" vertex="1">
          <mxGeometry y="124" width="150" height="26" as="geometry" />
        </mxCell>
        <mxCell id="JtVLC9THB3B2dhIAnBEE-72" value="&lt;b&gt;isDeleted &lt;/b&gt;bool" style="text;strokeColor=none;fillColor=none;align=left;verticalAlign=top;spacingLeft=4;spacingRight=4;overflow=hidden;rotatable=0;points=[[0,0.5],[1,0.5]];portConstraint=eastwest;whiteSpace=wrap;html=1;" parent="JtVLC9THB3B2dhIAnBEE-53" vertex="1">
          <mxGeometry y="150" width="150" height="26" as="geometry" />
        </mxCell>
        <mxCell id="JtVLC9THB3B2dhIAnBEE-67" value="" style="text;strokeColor=default;fillColor=none;align=left;verticalAlign=top;spacingLeft=4;spacingRight=4;overflow=hidden;rotatable=0;points=[[0,0.5],[1,0.5]];portConstraint=eastwest;whiteSpace=wrap;html=1;" parent="JtVLC9THB3B2dhIAnBEE-53" vertex="1">
          <mxGeometry y="176" width="150" height="4" as="geometry" />
        </mxCell>
        <mxCell id="JtVLC9THB3B2dhIAnBEE-68" value="fk(examination_id)" style="text;strokeColor=none;fillColor=none;align=left;verticalAlign=top;spacingLeft=4;spacingRight=4;overflow=hidden;rotatable=0;points=[[0,0.5],[1,0.5]];portConstraint=eastwest;whiteSpace=wrap;html=1;" parent="JtVLC9THB3B2dhIAnBEE-53" vertex="1">
          <mxGeometry y="180" width="150" height="26" as="geometry" />
        </mxCell>
        <mxCell id="JtVLC9THB3B2dhIAnBEE-69" value="fk(student_id)" style="text;strokeColor=none;fillColor=none;align=left;verticalAlign=top;spacingLeft=4;spacingRight=4;overflow=hidden;rotatable=0;points=[[0,0.5],[1,0.5]];portConstraint=eastwest;whiteSpace=wrap;html=1;" parent="JtVLC9THB3B2dhIAnBEE-53" vertex="1">
          <mxGeometry y="206" width="150" height="26" as="geometry" />
        </mxCell>
        <mxCell id="JtVLC9THB3B2dhIAnBEE-76" value="lectures" style="swimlane;fontStyle=0;childLayout=stackLayout;horizontal=1;startSize=20;fillColor=none;horizontalStack=0;resizeParent=1;resizeParentMax=0;resizeLast=0;collapsible=1;marginBottom=0;html=1;" parent="1" vertex="1">
          <mxGeometry x="285" y="990" width="170" height="284" as="geometry" />
        </mxCell>
        <mxCell id="JtVLC9THB3B2dhIAnBEE-77" value="&lt;b&gt;start_time&amp;nbsp;&lt;/b&gt;time&lt;span style=&quot;color: rgba(0, 0, 0, 0); font-family: monospace; font-size: 0px; text-wrap-mode: nowrap;&quot;&gt;%3CmxGraphModel%3E%3Croot%3E%3CmxCell%20id%3D%220%22%2F%3E%3CmxCell%20id%3D%221%22%20parent%3D%220%22%2F%3E%3CmxCell%20id%3D%222%22%20value%3D%22%26lt%3Bb%26gt%3Bcreated_at%20%26lt%3B%2Fb%26gt%3Bdate_time%22%20style%3D%22text%3BstrokeColor%3Dnone%3BfillColor%3Dnone%3Balign%3Dleft%3BverticalAlign%3Dtop%3BspacingLeft%3D4%3BspacingRight%3D4%3Boverflow%3Dhidden%3Brotatable%3D0%3Bpoints%3D%5B%5B0%2C0.5%5D%2C%5B1%2C0.5%5D%5D%3BportConstraint%3Deastwest%3BwhiteSpace%3Dwrap%3Bhtml%3D1%3B%22%20vertex%3D%221%22%20parent%3D%221%22%3E%3CmxGeometry%20x%3D%22310%22%20y%3D%22254%22%20width%3D%22180%22%20height%3D%2226%22%20as%3D%22geometry%22%2F%3E%3C%2FmxCell%3E%3CmxCell%20id%3D%223%22%20value%3D%22%26lt%3Bb%26gt%3Bupdated_at%20%26lt%3B%2Fb%26gt%3Bdate_time%22%20style%3D%22text%3BstrokeColor%3Dnone%3BfillColor%3Dnone%3Balign%3Dleft%3BverticalAlign%3Dtop%3BspacingLeft%3D4%3BspacingRight%3D4%3Boverflow%3Dhidden%3Brotatable%3D0%3Bpoints%3D%5B%5B0%2C0.5%5D%2C%5B1%2C0.5%5D%5D%3BportConstraint%3Deastwest%3BwhiteSpace%3Dwrap%3Bhtml%3D1%3B%22%20vertex%3D%221%22%20parent%3D%221%22%3E%3CmxGeometry%20x%3D%22310%22%20y%3D%22280%22%20width%3D%22180%22%20height%3D%2226%22%20as%3D%22geometry%22%2F%3E%3C%2FmxCell%3E%3CmxCell%20id%3D%224%22%20value%3D%22%26lt%3Bb%26gt%3BisDeleted%20%26lt%3B%2Fb%26gt%3Bbool%22%20style%3D%22text%3BstrokeColor%3Dnone%3BfillColor%3Dnone%3Balign%3Dleft%3BverticalAlign%3Dtop%3BspacingLeft%3D4%3BspacingRight%3D4%3Boverflow%3Dhidden%3Brotatable%3D0%3Bpoints%3D%5B%5B0%2C0.5%5D%2C%5B1%2C0.5%5D%5D%3BportConstraint%3Deastwest%3BwhiteSpace%3Dwrap%3Bhtml%3D1%3B%22%20vertex%3D%221%22%20parent%3D%221%22%3E%3CmxGeometry%20x%3D%22310%22%20y%3D%22462%22%20width%3D%22180%22%20height%3D%2226%22%20as%3D%22geometry%22%2F%3E%3C%2FmxCell%3E%3C%2Froot%3E%3C%2FmxGraphModel%3Egttfsdf&lt;/span&gt;" style="text;strokeColor=none;fillColor=none;align=left;verticalAlign=top;spacingLeft=4;spacingRight=4;overflow=hidden;rotatable=0;points=[[0,0.5],[1,0.5]];portConstraint=eastwest;whiteSpace=wrap;html=1;fontStyle=0" parent="JtVLC9THB3B2dhIAnBEE-76" vertex="1">
          <mxGeometry y="20" width="170" height="26" as="geometry" />
        </mxCell>
        <mxCell id="JtVLC9THB3B2dhIAnBEE-78" value="&lt;b&gt;end_time&lt;/b&gt;&amp;nbsp;time" style="text;strokeColor=none;fillColor=none;align=left;verticalAlign=top;spacingLeft=4;spacingRight=4;overflow=hidden;rotatable=0;points=[[0,0.5],[1,0.5]];portConstraint=eastwest;whiteSpace=wrap;html=1;fontStyle=0" parent="JtVLC9THB3B2dhIAnBEE-76" vertex="1">
          <mxGeometry y="46" width="170" height="26" as="geometry" />
        </mxCell>
        <mxCell id="JtVLC9THB3B2dhIAnBEE-85" value="&lt;span&gt;&lt;b&gt;week_day E&lt;/b&gt;num()&lt;/span&gt;" style="text;strokeColor=none;fillColor=none;align=left;verticalAlign=top;spacingLeft=4;spacingRight=4;overflow=hidden;rotatable=0;points=[[0,0.5],[1,0.5]];portConstraint=eastwest;whiteSpace=wrap;html=1;fontStyle=0" parent="JtVLC9THB3B2dhIAnBEE-76" vertex="1">
          <mxGeometry y="72" width="170" height="26" as="geometry" />
        </mxCell>
        <mxCell id="JtVLC9THB3B2dhIAnBEE-183" value="&lt;b&gt;school_class_id &lt;/b&gt;number" style="text;strokeColor=none;fillColor=none;align=left;verticalAlign=top;spacingLeft=4;spacingRight=4;overflow=hidden;rotatable=0;points=[[0,0.5],[1,0.5]];portConstraint=eastwest;whiteSpace=wrap;html=1;" parent="JtVLC9THB3B2dhIAnBEE-76" vertex="1">
          <mxGeometry y="98" width="170" height="26" as="geometry" />
        </mxCell>
        <mxCell id="JtVLC9THB3B2dhIAnBEE-79" value="&lt;b&gt;subject_id &lt;/b&gt;number" style="text;strokeColor=none;fillColor=none;align=left;verticalAlign=top;spacingLeft=4;spacingRight=4;overflow=hidden;rotatable=0;points=[[0,0.5],[1,0.5]];portConstraint=eastwest;whiteSpace=wrap;html=1;" parent="JtVLC9THB3B2dhIAnBEE-76" vertex="1">
          <mxGeometry y="124" width="170" height="26" as="geometry" />
        </mxCell>
        <mxCell id="JtVLC9THB3B2dhIAnBEE-80" value="&lt;b&gt;created_at &lt;/b&gt;date_time" style="text;strokeColor=none;fillColor=none;align=left;verticalAlign=top;spacingLeft=4;spacingRight=4;overflow=hidden;rotatable=0;points=[[0,0.5],[1,0.5]];portConstraint=eastwest;whiteSpace=wrap;html=1;" parent="JtVLC9THB3B2dhIAnBEE-76" vertex="1">
          <mxGeometry y="150" width="170" height="26" as="geometry" />
        </mxCell>
        <mxCell id="JtVLC9THB3B2dhIAnBEE-81" value="&lt;b&gt;updated_at &lt;/b&gt;date_time" style="text;strokeColor=none;fillColor=none;align=left;verticalAlign=top;spacingLeft=4;spacingRight=4;overflow=hidden;rotatable=0;points=[[0,0.5],[1,0.5]];portConstraint=eastwest;whiteSpace=wrap;html=1;" parent="JtVLC9THB3B2dhIAnBEE-76" vertex="1">
          <mxGeometry y="176" width="170" height="26" as="geometry" />
        </mxCell>
        <mxCell id="JtVLC9THB3B2dhIAnBEE-82" value="&lt;b&gt;isDeleted &lt;/b&gt;bool" style="text;strokeColor=none;fillColor=none;align=left;verticalAlign=top;spacingLeft=4;spacingRight=4;overflow=hidden;rotatable=0;points=[[0,0.5],[1,0.5]];portConstraint=eastwest;whiteSpace=wrap;html=1;" parent="JtVLC9THB3B2dhIAnBEE-76" vertex="1">
          <mxGeometry y="202" width="170" height="26" as="geometry" />
        </mxCell>
        <mxCell id="JtVLC9THB3B2dhIAnBEE-83" value="" style="text;strokeColor=default;fillColor=none;align=left;verticalAlign=top;spacingLeft=4;spacingRight=4;overflow=hidden;rotatable=0;points=[[0,0.5],[1,0.5]];portConstraint=eastwest;whiteSpace=wrap;html=1;" parent="JtVLC9THB3B2dhIAnBEE-76" vertex="1">
          <mxGeometry y="228" width="170" height="4" as="geometry" />
        </mxCell>
        <mxCell id="JtVLC9THB3B2dhIAnBEE-184" value="fk(subject_id)" style="text;strokeColor=none;fillColor=none;align=left;verticalAlign=top;spacingLeft=4;spacingRight=4;overflow=hidden;rotatable=0;points=[[0,0.5],[1,0.5]];portConstraint=eastwest;whiteSpace=wrap;html=1;" parent="JtVLC9THB3B2dhIAnBEE-76" vertex="1">
          <mxGeometry y="232" width="170" height="26" as="geometry" />
        </mxCell>
        <mxCell id="JtVLC9THB3B2dhIAnBEE-84" value="fk(school_class_id)" style="text;strokeColor=none;fillColor=none;align=left;verticalAlign=top;spacingLeft=4;spacingRight=4;overflow=hidden;rotatable=0;points=[[0,0.5],[1,0.5]];portConstraint=eastwest;whiteSpace=wrap;html=1;" parent="JtVLC9THB3B2dhIAnBEE-76" vertex="1">
          <mxGeometry y="258" width="170" height="26" as="geometry" />
        </mxCell>
        <mxCell id="JtVLC9THB3B2dhIAnBEE-87" value="trimesters" style="swimlane;fontStyle=0;childLayout=stackLayout;horizontal=1;startSize=20;fillColor=none;horizontalStack=0;resizeParent=1;resizeParentMax=0;resizeLast=0;collapsible=1;marginBottom=0;html=1;" parent="1" vertex="1">
          <mxGeometry x="302" y="620" width="140" height="128" as="geometry" />
        </mxCell>
        <mxCell id="JtVLC9THB3B2dhIAnBEE-96" value="&lt;b&gt;start_date&amp;nbsp;&lt;/b&gt;date" style="text;strokeColor=none;fillColor=none;align=left;verticalAlign=top;spacingLeft=4;spacingRight=4;overflow=hidden;rotatable=0;points=[[0,0.5],[1,0.5]];portConstraint=eastwest;whiteSpace=wrap;html=1;" parent="JtVLC9THB3B2dhIAnBEE-87" vertex="1">
          <mxGeometry y="20" width="140" height="26" as="geometry" />
        </mxCell>
        <mxCell id="JtVLC9THB3B2dhIAnBEE-98" value="&lt;b&gt;end_date&amp;nbsp;&lt;/b&gt;date" style="text;strokeColor=none;fillColor=none;align=left;verticalAlign=top;spacingLeft=4;spacingRight=4;overflow=hidden;rotatable=0;points=[[0,0.5],[1,0.5]];portConstraint=eastwest;whiteSpace=wrap;html=1;" parent="JtVLC9THB3B2dhIAnBEE-87" vertex="1">
          <mxGeometry y="46" width="140" height="26" as="geometry" />
        </mxCell>
        <mxCell id="JtVLC9THB3B2dhIAnBEE-91" value="&lt;b&gt;created_at &lt;/b&gt;date_time" style="text;strokeColor=none;fillColor=none;align=left;verticalAlign=top;spacingLeft=4;spacingRight=4;overflow=hidden;rotatable=0;points=[[0,0.5],[1,0.5]];portConstraint=eastwest;whiteSpace=wrap;html=1;" parent="JtVLC9THB3B2dhIAnBEE-87" vertex="1">
          <mxGeometry y="72" width="140" height="26" as="geometry" />
        </mxCell>
        <mxCell id="JtVLC9THB3B2dhIAnBEE-92" value="&lt;b&gt;updated_at &lt;/b&gt;date_time" style="text;strokeColor=none;fillColor=none;align=left;verticalAlign=top;spacingLeft=4;spacingRight=4;overflow=hidden;rotatable=0;points=[[0,0.5],[1,0.5]];portConstraint=eastwest;whiteSpace=wrap;html=1;" parent="JtVLC9THB3B2dhIAnBEE-87" vertex="1">
          <mxGeometry y="98" width="140" height="26" as="geometry" />
        </mxCell>
        <mxCell id="JtVLC9THB3B2dhIAnBEE-94" value="" style="text;strokeColor=default;fillColor=none;align=left;verticalAlign=top;spacingLeft=4;spacingRight=4;overflow=hidden;rotatable=0;points=[[0,0.5],[1,0.5]];portConstraint=eastwest;whiteSpace=wrap;html=1;" parent="JtVLC9THB3B2dhIAnBEE-87" vertex="1">
          <mxGeometry y="124" width="140" height="4" as="geometry" />
        </mxCell>
        <mxCell id="JtVLC9THB3B2dhIAnBEE-99" style="edgeStyle=orthogonalEdgeStyle;rounded=0;orthogonalLoop=1;jettySize=auto;html=1;entryX=0.485;entryY=1.073;entryDx=0;entryDy=0;entryPerimeter=0;" parent="1" source="JtVLC9THB3B2dhIAnBEE-21" target="JtVLC9THB3B2dhIAnBEE-94" edge="1">
          <mxGeometry relative="1" as="geometry" />
        </mxCell>
        <mxCell id="JtVLC9THB3B2dhIAnBEE-110" value="school_classes" style="swimlane;fontStyle=0;childLayout=stackLayout;horizontal=1;startSize=20;fillColor=none;horizontalStack=0;resizeParent=1;resizeParentMax=0;resizeLast=0;collapsible=1;marginBottom=0;html=1;" parent="1" vertex="1">
          <mxGeometry x="770" y="312" width="140" height="258" as="geometry" />
        </mxCell>
        <mxCell id="JtVLC9THB3B2dhIAnBEE-111" value="&lt;b&gt;name&amp;nbsp;&lt;/b&gt;text&lt;span style=&quot;color: rgba(0, 0, 0, 0); font-family: monospace; font-size: 0px; text-wrap-mode: nowrap;&quot;&gt;%3CmxGraphModel%3E%3Croot%3E%3CmxCell%20id%3D%220%22%2F%3E%3CmxCell%20id%3D%221%22%20parent%3D%220%22%2F%3E%3CmxCell%20id%3D%222%22%20value%3D%22%26lt%3Bb%26gt%3Bcreated_at%20%26lt%3B%2Fb%26gt%3Bdate_time%22%20style%3D%22text%3BstrokeColor%3Dnone%3BfillColor%3Dnone%3Balign%3Dleft%3BverticalAlign%3Dtop%3BspacingLeft%3D4%3BspacingRight%3D4%3Boverflow%3Dhidden%3Brotatable%3D0%3Bpoints%3D%5B%5B0%2C0.5%5D%2C%5B1%2C0.5%5D%5D%3BportConstraint%3Deastwest%3BwhiteSpace%3Dwrap%3Bhtml%3D1%3B%22%20vertex%3D%221%22%20parent%3D%221%22%3E%3CmxGeometry%20x%3D%22310%22%20y%3D%22254%22%20width%3D%22180%22%20height%3D%2226%22%20as%3D%22geometry%22%2F%3E%3C%2FmxCell%3E%3CmxCell%20id%3D%223%22%20value%3D%22%26lt%3Bb%26gt%3Bupdated_at%20%26lt%3B%2Fb%26gt%3Bdate_time%22%20style%3D%22text%3BstrokeColor%3Dnone%3BfillColor%3Dnone%3Balign%3Dleft%3BverticalAlign%3Dtop%3BspacingLeft%3D4%3BspacingRight%3D4%3Boverflow%3Dhidden%3Brotatable%3D0%3Bpoints%3D%5B%5B0%2C0.5%5D%2C%5B1%2C0.5%5D%5D%3BportConstraint%3Deastwest%3BwhiteSpace%3Dwrap%3Bhtml%3D1%3B%22%20vertex%3D%221%22%20parent%3D%221%22%3E%3CmxGeometry%20x%3D%22310%22%20y%3D%22280%22%20width%3D%22180%22%20height%3D%2226%22%20as%3D%22geometry%22%2F%3E%3C%2FmxCell%3E%3CmxCell%20id%3D%224%22%20value%3D%22%26lt%3Bb%26gt%3BisDeleted%20%26lt%3B%2Fb%26gt%3Bbool%22%20style%3D%22text%3BstrokeColor%3Dnone%3BfillColor%3Dnone%3Balign%3Dleft%3BverticalAlign%3Dtop%3BspacingLeft%3D4%3BspacingRight%3D4%3Boverflow%3Dhidden%3Brotatable%3D0%3Bpoints%3D%5B%5B0%2C0.5%5D%2C%5B1%2C0.5%5D%5D%3BportConstraint%3Deastwest%3BwhiteSpace%3Dwrap%3Bhtml%3D1%3B%22%20vertex%3D%221%22%20parent%3D%221%22%3E%3CmxGeometry%20x%3D%22310%22%20y%3D%22462%22%20width%3D%22180%22%20height%3D%2226%22%20as%3D%22geometry%22%2F%3E%3C%2FmxCell%3E%3C%2Froot%3E%3C%2FmxGraphModel%3Egttfsdf&lt;/span&gt;" style="text;strokeColor=none;fillColor=none;align=left;verticalAlign=top;spacingLeft=4;spacingRight=4;overflow=hidden;rotatable=0;points=[[0,0.5],[1,0.5]];portConstraint=eastwest;whiteSpace=wrap;html=1;fontStyle=0" parent="JtVLC9THB3B2dhIAnBEE-110" vertex="1">
          <mxGeometry y="20" width="140" height="26" as="geometry" />
        </mxCell>
        <mxCell id="JtVLC9THB3B2dhIAnBEE-119" value="&lt;b&gt;grade&amp;nbsp;&lt;/b&gt;number" style="text;strokeColor=none;fillColor=none;align=left;verticalAlign=top;spacingLeft=4;spacingRight=4;overflow=hidden;rotatable=0;points=[[0,0.5],[1,0.5]];portConstraint=eastwest;whiteSpace=wrap;html=1;" parent="JtVLC9THB3B2dhIAnBEE-110" vertex="1">
          <mxGeometry y="46" width="140" height="26" as="geometry" />
        </mxCell>
        <mxCell id="JtVLC9THB3B2dhIAnBEE-120" value="&lt;b&gt;teacher_id &lt;/b&gt;number" style="text;strokeColor=none;fillColor=none;align=left;verticalAlign=top;spacingLeft=4;spacingRight=4;overflow=hidden;rotatable=0;points=[[0,0.5],[1,0.5]];portConstraint=eastwest;whiteSpace=wrap;html=1;" parent="JtVLC9THB3B2dhIAnBEE-110" vertex="1">
          <mxGeometry y="72" width="140" height="26" as="geometry" />
        </mxCell>
        <mxCell id="JtVLC9THB3B2dhIAnBEE-113" value="&lt;b&gt;year_id &lt;/b&gt;number" style="text;strokeColor=none;fillColor=none;align=left;verticalAlign=top;spacingLeft=4;spacingRight=4;overflow=hidden;rotatable=0;points=[[0,0.5],[1,0.5]];portConstraint=eastwest;whiteSpace=wrap;html=1;" parent="JtVLC9THB3B2dhIAnBEE-110" vertex="1">
          <mxGeometry y="98" width="140" height="26" as="geometry" />
        </mxCell>
        <mxCell id="10b-gI9Zit2YTq0xO9g--2" value="&lt;b&gt;isDeleted &lt;/b&gt;bool" style="text;strokeColor=none;fillColor=none;align=left;verticalAlign=top;spacingLeft=4;spacingRight=4;overflow=hidden;rotatable=0;points=[[0,0.5],[1,0.5]];portConstraint=eastwest;whiteSpace=wrap;html=1;" parent="JtVLC9THB3B2dhIAnBEE-110" vertex="1">
          <mxGeometry y="124" width="140" height="26" as="geometry" />
        </mxCell>
        <mxCell id="JtVLC9THB3B2dhIAnBEE-114" value="&lt;b&gt;created_at &lt;/b&gt;date_time" style="text;strokeColor=none;fillColor=none;align=left;verticalAlign=top;spacingLeft=4;spacingRight=4;overflow=hidden;rotatable=0;points=[[0,0.5],[1,0.5]];portConstraint=eastwest;whiteSpace=wrap;html=1;" parent="JtVLC9THB3B2dhIAnBEE-110" vertex="1">
          <mxGeometry y="150" width="140" height="26" as="geometry" />
        </mxCell>
        <mxCell id="JtVLC9THB3B2dhIAnBEE-115" value="&lt;b&gt;updated_at &lt;/b&gt;date_time" style="text;strokeColor=none;fillColor=none;align=left;verticalAlign=top;spacingLeft=4;spacingRight=4;overflow=hidden;rotatable=0;points=[[0,0.5],[1,0.5]];portConstraint=eastwest;whiteSpace=wrap;html=1;" parent="JtVLC9THB3B2dhIAnBEE-110" vertex="1">
          <mxGeometry y="176" width="140" height="26" as="geometry" />
        </mxCell>
        <mxCell id="JtVLC9THB3B2dhIAnBEE-117" value="" style="text;strokeColor=default;fillColor=none;align=left;verticalAlign=top;spacingLeft=4;spacingRight=4;overflow=hidden;rotatable=0;points=[[0,0.5],[1,0.5]];portConstraint=eastwest;whiteSpace=wrap;html=1;" parent="JtVLC9THB3B2dhIAnBEE-110" vertex="1">
          <mxGeometry y="202" width="140" height="4" as="geometry" />
        </mxCell>
        <mxCell id="JtVLC9THB3B2dhIAnBEE-118" value="fk(teacher_id)" style="text;strokeColor=none;fillColor=none;align=left;verticalAlign=top;spacingLeft=4;spacingRight=4;overflow=hidden;rotatable=0;points=[[0,0.5],[1,0.5]];portConstraint=eastwest;whiteSpace=wrap;html=1;" parent="JtVLC9THB3B2dhIAnBEE-110" vertex="1">
          <mxGeometry y="206" width="140" height="26" as="geometry" />
        </mxCell>
        <mxCell id="JtVLC9THB3B2dhIAnBEE-121" value="fk(year_id)" style="text;strokeColor=none;fillColor=none;align=left;verticalAlign=top;spacingLeft=4;spacingRight=4;overflow=hidden;rotatable=0;points=[[0,0.5],[1,0.5]];portConstraint=eastwest;whiteSpace=wrap;html=1;" parent="JtVLC9THB3B2dhIAnBEE-110" vertex="1">
          <mxGeometry y="232" width="140" height="26" as="geometry" />
        </mxCell>
        <mxCell id="JtVLC9THB3B2dhIAnBEE-123" value="school_classes" style="swimlane;fontStyle=0;childLayout=stackLayout;horizontal=1;startSize=20;fillColor=none;horizontalStack=0;resizeParent=1;resizeParentMax=0;resizeLast=0;collapsible=1;marginBottom=0;html=1;" parent="1" vertex="1">
          <mxGeometry x="650" y="610" width="200" height="310" as="geometry" />
        </mxCell>
        <mxCell id="JtVLC9THB3B2dhIAnBEE-126" value="&lt;b&gt;first_trimester_id &lt;/b&gt;number" style="text;strokeColor=none;fillColor=none;align=left;verticalAlign=top;spacingLeft=4;spacingRight=4;overflow=hidden;rotatable=0;points=[[0,0.5],[1,0.5]];portConstraint=eastwest;whiteSpace=wrap;html=1;" parent="JtVLC9THB3B2dhIAnBEE-123" vertex="1">
          <mxGeometry y="20" width="200" height="26" as="geometry" />
        </mxCell>
        <mxCell id="JtVLC9THB3B2dhIAnBEE-135" value="&lt;b&gt;second_trimester_id &lt;/b&gt;number" style="text;strokeColor=none;fillColor=none;align=left;verticalAlign=top;spacingLeft=4;spacingRight=4;overflow=hidden;rotatable=0;points=[[0,0.5],[1,0.5]];portConstraint=eastwest;whiteSpace=wrap;html=1;" parent="JtVLC9THB3B2dhIAnBEE-123" vertex="1">
          <mxGeometry y="46" width="200" height="26" as="geometry" />
        </mxCell>
        <mxCell id="JtVLC9THB3B2dhIAnBEE-136" value="&lt;b&gt;third_trimester_id &lt;/b&gt;number" style="text;strokeColor=none;fillColor=none;align=left;verticalAlign=top;spacingLeft=4;spacingRight=4;overflow=hidden;rotatable=0;points=[[0,0.5],[1,0.5]];portConstraint=eastwest;whiteSpace=wrap;html=1;" parent="JtVLC9THB3B2dhIAnBEE-123" vertex="1">
          <mxGeometry y="72" width="200" height="26" as="geometry" />
        </mxCell>
        <mxCell id="JtVLC9THB3B2dhIAnBEE-134" value="&lt;b&gt;fourth_trimester_id &lt;/b&gt;number" style="text;strokeColor=none;fillColor=none;align=left;verticalAlign=top;spacingLeft=4;spacingRight=4;overflow=hidden;rotatable=0;points=[[0,0.5],[1,0.5]];portConstraint=eastwest;whiteSpace=wrap;html=1;" parent="JtVLC9THB3B2dhIAnBEE-123" vertex="1">
          <mxGeometry y="98" width="200" height="26" as="geometry" />
        </mxCell>
        <mxCell id="JtVLC9THB3B2dhIAnBEE-128" value="&lt;b&gt;created_at &lt;/b&gt;date_time" style="text;strokeColor=none;fillColor=none;align=left;verticalAlign=top;spacingLeft=4;spacingRight=4;overflow=hidden;rotatable=0;points=[[0,0.5],[1,0.5]];portConstraint=eastwest;whiteSpace=wrap;html=1;" parent="JtVLC9THB3B2dhIAnBEE-123" vertex="1">
          <mxGeometry y="124" width="200" height="26" as="geometry" />
        </mxCell>
        <mxCell id="JtVLC9THB3B2dhIAnBEE-129" value="&lt;b&gt;updated_at &lt;/b&gt;date_time" style="text;strokeColor=none;fillColor=none;align=left;verticalAlign=top;spacingLeft=4;spacingRight=4;overflow=hidden;rotatable=0;points=[[0,0.5],[1,0.5]];portConstraint=eastwest;whiteSpace=wrap;html=1;" parent="JtVLC9THB3B2dhIAnBEE-123" vertex="1">
          <mxGeometry y="150" width="200" height="26" as="geometry" />
        </mxCell>
        <mxCell id="JtVLC9THB3B2dhIAnBEE-140" value="&lt;b&gt;isDeleted &lt;/b&gt;bool" style="text;strokeColor=none;fillColor=none;align=left;verticalAlign=top;spacingLeft=4;spacingRight=4;overflow=hidden;rotatable=0;points=[[0,0.5],[1,0.5]];portConstraint=eastwest;whiteSpace=wrap;html=1;" parent="JtVLC9THB3B2dhIAnBEE-123" vertex="1">
          <mxGeometry y="176" width="200" height="26" as="geometry" />
        </mxCell>
        <mxCell id="JtVLC9THB3B2dhIAnBEE-130" value="" style="text;strokeColor=default;fillColor=none;align=left;verticalAlign=top;spacingLeft=4;spacingRight=4;overflow=hidden;rotatable=0;points=[[0,0.5],[1,0.5]];portConstraint=eastwest;whiteSpace=wrap;html=1;" parent="JtVLC9THB3B2dhIAnBEE-123" vertex="1">
          <mxGeometry y="202" width="200" height="4" as="geometry" />
        </mxCell>
        <mxCell id="JtVLC9THB3B2dhIAnBEE-131" value="fk(first_trimester_id)" style="text;strokeColor=none;fillColor=none;align=left;verticalAlign=top;spacingLeft=4;spacingRight=4;overflow=hidden;rotatable=0;points=[[0,0.5],[1,0.5]];portConstraint=eastwest;whiteSpace=wrap;html=1;" parent="JtVLC9THB3B2dhIAnBEE-123" vertex="1">
          <mxGeometry y="206" width="200" height="26" as="geometry" />
        </mxCell>
        <mxCell id="JtVLC9THB3B2dhIAnBEE-132" value="fk(second_trimester_id)" style="text;strokeColor=none;fillColor=none;align=left;verticalAlign=top;spacingLeft=4;spacingRight=4;overflow=hidden;rotatable=0;points=[[0,0.5],[1,0.5]];portConstraint=eastwest;whiteSpace=wrap;html=1;" parent="JtVLC9THB3B2dhIAnBEE-123" vertex="1">
          <mxGeometry y="232" width="200" height="26" as="geometry" />
        </mxCell>
        <mxCell id="JtVLC9THB3B2dhIAnBEE-138" value="fk(third_trimester_id)" style="text;strokeColor=none;fillColor=none;align=left;verticalAlign=top;spacingLeft=4;spacingRight=4;overflow=hidden;rotatable=0;points=[[0,0.5],[1,0.5]];portConstraint=eastwest;whiteSpace=wrap;html=1;" parent="JtVLC9THB3B2dhIAnBEE-123" vertex="1">
          <mxGeometry y="258" width="200" height="26" as="geometry" />
        </mxCell>
        <mxCell id="JtVLC9THB3B2dhIAnBEE-137" value="fk(fourth_trimester_id)" style="text;strokeColor=none;fillColor=none;align=left;verticalAlign=top;spacingLeft=4;spacingRight=4;overflow=hidden;rotatable=0;points=[[0,0.5],[1,0.5]];portConstraint=eastwest;whiteSpace=wrap;html=1;" parent="JtVLC9THB3B2dhIAnBEE-123" vertex="1">
          <mxGeometry y="284" width="200" height="26" as="geometry" />
        </mxCell>
        <mxCell id="JtVLC9THB3B2dhIAnBEE-154" value="school_classes" style="swimlane;fontStyle=0;childLayout=stackLayout;horizontal=1;startSize=20;fillColor=none;horizontalStack=0;resizeParent=1;resizeParentMax=0;resizeLast=0;collapsible=1;marginBottom=0;html=1;" parent="1" vertex="1">
          <mxGeometry x="991" y="1016" width="140" height="128" as="geometry" />
        </mxCell>
        <mxCell id="JtVLC9THB3B2dhIAnBEE-155" value="&lt;b&gt;name&amp;nbsp;&lt;/b&gt;text&lt;span style=&quot;color: rgba(0, 0, 0, 0); font-family: monospace; font-size: 0px; text-wrap-mode: nowrap;&quot;&gt;%3CmxGraphModel%3E%3Croot%3E%3CmxCell%20id%3D%220%22%2F%3E%3CmxCell%20id%3D%221%22%20parent%3D%220%22%2F%3E%3CmxCell%20id%3D%222%22%20value%3D%22%26lt%3Bb%26gt%3Bcreated_at%20%26lt%3B%2Fb%26gt%3Bdate_time%22%20style%3D%22text%3BstrokeColor%3Dnone%3BfillColor%3Dnone%3Balign%3Dleft%3BverticalAlign%3Dtop%3BspacingLeft%3D4%3BspacingRight%3D4%3Boverflow%3Dhidden%3Brotatable%3D0%3Bpoints%3D%5B%5B0%2C0.5%5D%2C%5B1%2C0.5%5D%5D%3BportConstraint%3Deastwest%3BwhiteSpace%3Dwrap%3Bhtml%3D1%3B%22%20vertex%3D%221%22%20parent%3D%221%22%3E%3CmxGeometry%20x%3D%22310%22%20y%3D%22254%22%20width%3D%22180%22%20height%3D%2226%22%20as%3D%22geometry%22%2F%3E%3C%2FmxCell%3E%3CmxCell%20id%3D%223%22%20value%3D%22%26lt%3Bb%26gt%3Bupdated_at%20%26lt%3B%2Fb%26gt%3Bdate_time%22%20style%3D%22text%3BstrokeColor%3Dnone%3BfillColor%3Dnone%3Balign%3Dleft%3BverticalAlign%3Dtop%3BspacingLeft%3D4%3BspacingRight%3D4%3Boverflow%3Dhidden%3Brotatable%3D0%3Bpoints%3D%5B%5B0%2C0.5%5D%2C%5B1%2C0.5%5D%5D%3BportConstraint%3Deastwest%3BwhiteSpace%3Dwrap%3Bhtml%3D1%3B%22%20vertex%3D%221%22%20parent%3D%221%22%3E%3CmxGeometry%20x%3D%22310%22%20y%3D%22280%22%20width%3D%22180%22%20height%3D%2226%22%20as%3D%22geometry%22%2F%3E%3C%2FmxCell%3E%3CmxCell%20id%3D%224%22%20value%3D%22%26lt%3Bb%26gt%3BisDeleted%20%26lt%3B%2Fb%26gt%3Bbool%22%20style%3D%22text%3BstrokeColor%3Dnone%3BfillColor%3Dnone%3Balign%3Dleft%3BverticalAlign%3Dtop%3BspacingLeft%3D4%3BspacingRight%3D4%3Boverflow%3Dhidden%3Brotatable%3D0%3Bpoints%3D%5B%5B0%2C0.5%5D%2C%5B1%2C0.5%5D%5D%3BportConstraint%3Deastwest%3BwhiteSpace%3Dwrap%3Bhtml%3D1%3B%22%20vertex%3D%221%22%20parent%3D%221%22%3E%3CmxGeometry%20x%3D%22310%22%20y%3D%22462%22%20width%3D%22180%22%20height%3D%2226%22%20as%3D%22geometry%22%2F%3E%3C%2FmxCell%3E%3C%2Froot%3E%3C%2FmxGraphModel%3Egttfsdf&lt;/span&gt;" style="text;strokeColor=none;fillColor=none;align=left;verticalAlign=top;spacingLeft=4;spacingRight=4;overflow=hidden;rotatable=0;points=[[0,0.5],[1,0.5]];portConstraint=eastwest;whiteSpace=wrap;html=1;fontStyle=0" parent="JtVLC9THB3B2dhIAnBEE-154" vertex="1">
          <mxGeometry y="20" width="140" height="26" as="geometry" />
        </mxCell>
        <mxCell id="JtVLC9THB3B2dhIAnBEE-159" value="&lt;b&gt;created_at &lt;/b&gt;date_time" style="text;strokeColor=none;fillColor=none;align=left;verticalAlign=top;spacingLeft=4;spacingRight=4;overflow=hidden;rotatable=0;points=[[0,0.5],[1,0.5]];portConstraint=eastwest;whiteSpace=wrap;html=1;" parent="JtVLC9THB3B2dhIAnBEE-154" vertex="1">
          <mxGeometry y="46" width="140" height="26" as="geometry" />
        </mxCell>
        <mxCell id="JtVLC9THB3B2dhIAnBEE-160" value="&lt;b&gt;updated_at &lt;/b&gt;date_time" style="text;strokeColor=none;fillColor=none;align=left;verticalAlign=top;spacingLeft=4;spacingRight=4;overflow=hidden;rotatable=0;points=[[0,0.5],[1,0.5]];portConstraint=eastwest;whiteSpace=wrap;html=1;" parent="JtVLC9THB3B2dhIAnBEE-154" vertex="1">
          <mxGeometry y="72" width="140" height="26" as="geometry" />
        </mxCell>
        <mxCell id="JtVLC9THB3B2dhIAnBEE-164" value="&lt;b&gt;isDeleted &lt;/b&gt;bool" style="text;strokeColor=none;fillColor=none;align=left;verticalAlign=top;spacingLeft=4;spacingRight=4;overflow=hidden;rotatable=0;points=[[0,0.5],[1,0.5]];portConstraint=eastwest;whiteSpace=wrap;html=1;" parent="JtVLC9THB3B2dhIAnBEE-154" vertex="1">
          <mxGeometry y="98" width="140" height="26" as="geometry" />
        </mxCell>
        <mxCell id="JtVLC9THB3B2dhIAnBEE-161" value="" style="text;strokeColor=default;fillColor=none;align=left;verticalAlign=top;spacingLeft=4;spacingRight=4;overflow=hidden;rotatable=0;points=[[0,0.5],[1,0.5]];portConstraint=eastwest;whiteSpace=wrap;html=1;" parent="JtVLC9THB3B2dhIAnBEE-154" vertex="1">
          <mxGeometry y="124" width="140" height="4" as="geometry" />
        </mxCell>
        <mxCell id="JtVLC9THB3B2dhIAnBEE-166" value="&lt;b style=&quot;border-color: var(--border-color);&quot;&gt;Enum - students/people(status)&lt;/b&gt;" style="swimlane;fontStyle=0;childLayout=stackLayout;horizontal=1;startSize=30;horizontalStack=0;resizeParent=1;resizeParentMax=0;resizeLast=0;collapsible=1;marginBottom=0;whiteSpace=wrap;html=1;fillColor=#dae8fc;strokeColor=#6c8ebf;" parent="1" vertex="1">
          <mxGeometry x="-190" y="277" width="200" height="120" as="geometry" />
        </mxCell>
        <mxCell id="JtVLC9THB3B2dhIAnBEE-167" value="in_formation" style="text;align=left;verticalAlign=middle;spacingLeft=4;spacingRight=4;overflow=hidden;points=[[0,0.5],[1,0.5]];portConstraint=eastwest;rotatable=0;whiteSpace=wrap;html=1;fillColor=#C0D0FC;strokeColor=#6c8ebf;" parent="JtVLC9THB3B2dhIAnBEE-166" vertex="1">
          <mxGeometry y="30" width="200" height="30" as="geometry" />
        </mxCell>
        <mxCell id="JtVLC9THB3B2dhIAnBEE-168" value="stopped" style="text;align=left;verticalAlign=middle;spacingLeft=4;spacingRight=4;overflow=hidden;points=[[0,0.5],[1,0.5]];portConstraint=eastwest;rotatable=0;whiteSpace=wrap;html=1;fillColor=#C0D0FC;strokeColor=#6c8ebf;" parent="JtVLC9THB3B2dhIAnBEE-166" vertex="1">
          <mxGeometry y="60" width="200" height="30" as="geometry" />
        </mxCell>
        <mxCell id="JtVLC9THB3B2dhIAnBEE-169" value="finished" style="text;align=left;verticalAlign=middle;spacingLeft=4;spacingRight=4;overflow=hidden;points=[[0,0.5],[1,0.5]];portConstraint=eastwest;rotatable=0;whiteSpace=wrap;html=1;fillColor=#C0D0FC;strokeColor=#6c8ebf;" parent="JtVLC9THB3B2dhIAnBEE-166" vertex="1">
          <mxGeometry y="90" width="200" height="30" as="geometry" />
        </mxCell>
        <mxCell id="JtVLC9THB3B2dhIAnBEE-170" value="&lt;b style=&quot;border-color: var(--border-color);&quot;&gt;Enum - lectures(week_day)&lt;/b&gt;" style="swimlane;fontStyle=0;childLayout=stackLayout;horizontal=1;startSize=30;horizontalStack=0;resizeParent=1;resizeParentMax=0;resizeLast=0;collapsible=1;marginBottom=0;whiteSpace=wrap;html=1;fillColor=#dae8fc;strokeColor=#6c8ebf;" parent="1" vertex="1">
          <mxGeometry x="-190" y="410" width="160" height="240" as="geometry" />
        </mxCell>
        <mxCell id="JtVLC9THB3B2dhIAnBEE-171" value="monday" style="text;align=left;verticalAlign=middle;spacingLeft=4;spacingRight=4;overflow=hidden;points=[[0,0.5],[1,0.5]];portConstraint=eastwest;rotatable=0;whiteSpace=wrap;html=1;fillColor=#C0D0FC;strokeColor=#6c8ebf;" parent="JtVLC9THB3B2dhIAnBEE-170" vertex="1">
          <mxGeometry y="30" width="160" height="30" as="geometry" />
        </mxCell>
        <mxCell id="JtVLC9THB3B2dhIAnBEE-172" value="tuesday" style="text;align=left;verticalAlign=middle;spacingLeft=4;spacingRight=4;overflow=hidden;points=[[0,0.5],[1,0.5]];portConstraint=eastwest;rotatable=0;whiteSpace=wrap;html=1;fillColor=#C0D0FC;strokeColor=#6c8ebf;" parent="JtVLC9THB3B2dhIAnBEE-170" vertex="1">
          <mxGeometry y="60" width="160" height="30" as="geometry" />
        </mxCell>
        <mxCell id="JtVLC9THB3B2dhIAnBEE-173" value="wednesday&amp;nbsp;" style="text;align=left;verticalAlign=middle;spacingLeft=4;spacingRight=4;overflow=hidden;points=[[0,0.5],[1,0.5]];portConstraint=eastwest;rotatable=0;whiteSpace=wrap;html=1;fillColor=#C0D0FC;strokeColor=#6c8ebf;" parent="JtVLC9THB3B2dhIAnBEE-170" vertex="1">
          <mxGeometry y="90" width="160" height="30" as="geometry" />
        </mxCell>
        <mxCell id="JtVLC9THB3B2dhIAnBEE-174" value="thursday&amp;nbsp;" style="text;align=left;verticalAlign=middle;spacingLeft=4;spacingRight=4;overflow=hidden;points=[[0,0.5],[1,0.5]];portConstraint=eastwest;rotatable=0;whiteSpace=wrap;html=1;fillColor=#C0D0FC;strokeColor=#6c8ebf;" parent="JtVLC9THB3B2dhIAnBEE-170" vertex="1">
          <mxGeometry y="120" width="160" height="30" as="geometry" />
        </mxCell>
        <mxCell id="JtVLC9THB3B2dhIAnBEE-175" value="friday&amp;nbsp;" style="text;align=left;verticalAlign=middle;spacingLeft=4;spacingRight=4;overflow=hidden;points=[[0,0.5],[1,0.5]];portConstraint=eastwest;rotatable=0;whiteSpace=wrap;html=1;fillColor=#C0D0FC;strokeColor=#6c8ebf;" parent="JtVLC9THB3B2dhIAnBEE-170" vertex="1">
          <mxGeometry y="150" width="160" height="30" as="geometry" />
        </mxCell>
        <mxCell id="JtVLC9THB3B2dhIAnBEE-176" value="saturday&amp;nbsp;" style="text;align=left;verticalAlign=middle;spacingLeft=4;spacingRight=4;overflow=hidden;points=[[0,0.5],[1,0.5]];portConstraint=eastwest;rotatable=0;whiteSpace=wrap;html=1;fillColor=#C0D0FC;strokeColor=#6c8ebf;" parent="JtVLC9THB3B2dhIAnBEE-170" vertex="1">
          <mxGeometry y="180" width="160" height="30" as="geometry" />
        </mxCell>
        <mxCell id="JtVLC9THB3B2dhIAnBEE-177" value="sunday" style="text;align=left;verticalAlign=middle;spacingLeft=4;spacingRight=4;overflow=hidden;points=[[0,0.5],[1,0.5]];portConstraint=eastwest;rotatable=0;whiteSpace=wrap;html=1;fillColor=#C0D0FC;strokeColor=#6c8ebf;" parent="JtVLC9THB3B2dhIAnBEE-170" vertex="1">
          <mxGeometry y="210" width="160" height="30" as="geometry" />
        </mxCell>
        <mxCell id="JtVLC9THB3B2dhIAnBEE-178" value="&lt;b&gt;Comment&lt;/b&gt;" style="swimlane;fontStyle=0;childLayout=stackLayout;horizontal=1;startSize=30;horizontalStack=0;resizeParent=1;resizeParentMax=0;resizeLast=0;collapsible=1;marginBottom=0;whiteSpace=wrap;html=1;fillColor=#FFD966;strokeColor=#d79b00;" parent="1" vertex="1">
          <mxGeometry x="-190" y="670" width="160" height="170" as="geometry" />
        </mxCell>
        <mxCell id="JtVLC9THB3B2dhIAnBEE-179" value="The &quot;U&quot; letter in the bottom part of the tables means &quot;unique&quot;.&amp;nbsp;the format is such that what&#39;s in the parentheses should not represent signle attribute. It represents a group of attributes as an unique&amp;nbsp;entity&lt;br&gt;." style="text;align=left;verticalAlign=middle;spacingLeft=4;spacingRight=4;overflow=hidden;points=[[0,0.5],[1,0.5]];portConstraint=eastwest;rotatable=0;whiteSpace=wrap;html=1;fillColor=#A87E08;strokeColor=#634800;" parent="JtVLC9THB3B2dhIAnBEE-178" vertex="1">
          <mxGeometry y="30" width="160" height="140" as="geometry" />
        </mxCell>
        <mxCell id="JtVLC9THB3B2dhIAnBEE-182" style="edgeStyle=orthogonalEdgeStyle;rounded=0;orthogonalLoop=1;jettySize=auto;html=1;entryX=1;entryY=0.5;entryDx=0;entryDy=0;" parent="1" source="JtVLC9THB3B2dhIAnBEE-78" target="JtVLC9THB3B2dhIAnBEE-113" edge="1">
          <mxGeometry relative="1" as="geometry">
            <Array as="points">
              <mxPoint x="940" y="1049" />
              <mxPoint x="940" y="423" />
            </Array>
          </mxGeometry>
        </mxCell>
      </root>
    </mxGraphModel>
  </diagram>
</mxfile>
